<svg width="402px" height="402px" viewBox="0 0 402 402" version="1.1" xmlns="http://www.w3.org/2000/svg" xmlns:xlink="http://www.w3.org/1999/xlink">
    <!-- Generator: Sketch 46.2 (44496) - http://www.bohemiancoding.com/sketch -->
    <desc>Created with Sketch.</desc>
    <defs>
        <path d="M205.499988,207.039305 C205.499988,207.039305 205.499988,207.039305 205.499988,207.039305 L205.5,166.5 L205.5,207.039305 Z M201,402 C89.9907653,402 0,312.009235 0,201 C0,89.9907653 89.9907653,0 201,0 C312.009235,0 402,89.9907653 402,201 C402,312.009235 312.009235,402 201,402 Z M204.5,158 C237.360943,158 264,131.360943 264,98.5 C264,65.6390574 237.360943,39 204.5,39 C171.639057,39 145,65.6390574 145,98.5 C145,131.360943 171.639057,158 204.5,158 Z M313.912023,149.205407 L268.702848,92 C266.552147,107.887763 263.950097,118.961842 260.896699,125.222238 C257.8433,131.482633 251.211067,139.341639 241,148.799256 L313.912023,149.205407 Z M204.5,99 C193.178163,99 184,89.8218374 184,78.5 C184,67.1781626 193.178163,58 204.5,58 C215.821837,58 225,67.1781626 225,78.5 C225,89.8218374 215.821837,99 204.5,99 Z M205.499988,207.039305 C163.578758,208.359274 130,242.758268 130,285 C130,328.07821 164.92179,363 208,363 C251.07821,363 286,328.07821 286,285 C286,241.92179 251.07821,207 208,207 C207.163522,207 206.330119,207.013167 205.499988,207.039305 L205.5,207.5 L205.5,207.039305 Z" id="path-1"></path>
    </defs>
    <g id="Page-1" stroke="none" stroke-width="1" fill="none" fill-rule="evenodd">
        <g id="Group">
            <mask id="mask-2" fill="white">
                <use xlink:href="#path-1"></use>
            </mask>
            <use id="Combined-Shape" fill="#C61A1A" xlink:href="#path-1"></use>
        </g>
    </g>
</svg>
